REM MD5 ce442a557cb45a6655bfea101574e780
FILE "Euro Demo 22 (Europe).bin" BINARY
  TRACK 01 MODE2/2352
    INDEX 01 00:00:00
  TRACK 02 AUDIO
    INDEX 00 23:38:37
    INDEX 01 23:40:37
  TRACK 03 AUDIO
    INDEX 00 24:38:33
    INDEX 01 24:40:33
  TRACK 04 AUDIO
    INDEX 00 25:47:66
    INDEX 01 25:49:66
  TRACK 05 AUDIO
    INDEX 00 26:54:64
    INDEX 01 26:56:64
  TRACK 06 AUDIO
    INDEX 00 27:02:09
    INDEX 01 27:04:09
REM LEADOUT 30:21:39
